# xmcd CD database file
#
# Track frame offsets:
#	150
#	14393
#	24606
#	42335
#	64148
#	87445
#	107402
#	129230
#
# Disc length: 1980 seconds
#
# Revision: 0
# Processed by: cddbd v1.5.2PL0 Copyright (c) Steve Scherf et al.
# Submitted via: CDex 1.79
#
DISCID=5f07ba08
DTITLE=Satori - Satori
DYEAR=2015
DGENRE=Jazz
TTITLE0=Summer
TTITLE1=Vuya
TTITLE2=Reflections
TTITLE3=Weeping
TTITLE4=Satroi
TTITLE5=Spring in Joburg
TTITLE6=All that I need
TTITLE7=Weekend Special
EXTD=YEAR: 2015
EXTT0=
EXTT1=
EXTT2=
EXTT3=
EXTT4=
EXTT5=
EXTT6=
EXTT7=
PLAYORDER=
